<svg xmlns="http://www.w3.org/2000/svg" version="1.1" xmlns:xlink="http://www.w3.org/1999/xlink" xmlns:svgjs="http://svgjs.dev/svgjs" width="140" height="140"><svg width="140" height="140" viewBox="0 0 140 140" fill="none" xmlns="http://www.w3.org/2000/svg">
  <rect width="140" height="140" fill="#2162B7"></rect>

  <path d="M30.4421 100.181L30.2711 102.261C29.359 101.862 28.4184 101.691 27.3923 101.691C24.371 101.691 22.3473 103.886 22.3473 107.05C22.3473 110.271 24.2855 112.551 27.4208 112.551C28.5039 112.551 29.3875 112.351 30.4706 111.81L30.6417 113.919C29.6441 114.346 28.5609 114.546 27.2783 114.546C22.7463 114.546 19.8675 111.582 19.8675 107.135C19.8675 102.803 22.8033 99.6675 27.2498 99.6675C28.3899 99.6675 29.473 99.81 30.4421 100.181ZM37.6841 99.867L40.791 109.045C41.1045 109.929 41.5605 111.553 41.8171 112.522H41.8741C42.1591 111.553 42.6722 109.9 42.9572 109.045L46.064 99.867H48.4013L43.0427 114.831C41.532 119.021 40.3634 120.703 37.4846 120.703C37.0571 120.703 36.43 120.646 35.8884 120.475L36.0595 118.622C36.4585 118.736 36.9146 118.821 37.3706 118.821C38.9383 118.821 39.6223 117.966 40.6199 114.917L35.1759 99.867H37.6841ZM56.8475 102.375H56.9045C57.9591 100.637 59.6408 99.5534 61.8355 99.5534C65.8544 99.5534 67.0801 102.261 67.0801 106.052V114.375H64.7428V106.964C64.7428 103.658 64.2013 101.492 61.294 101.492C58.7857 101.492 56.9615 103.259 56.9615 107.278V114.375H54.6243V104.199C54.6243 102.66 54.5958 101.093 54.4817 99.867H56.7335C56.7905 100.551 56.8475 101.606 56.8475 102.375ZM84.6506 114.375L80.2897 109.729C79.4061 108.788 78.437 107.648 77.7244 106.736H77.6674V114.375H75.3301V92.8267H77.6674V105.995H77.7244C78.3799 105.254 79.4631 104.142 80.4037 103.259L83.9665 99.867H87.0734L79.9476 106.223L87.7859 114.375H84.6506ZM96.0609 102.489H96.1179C96.8305 100.779 98.3127 99.5534 100.165 99.5534C100.678 99.5534 101.106 99.6104 101.477 99.7245V101.862C101.106 101.748 100.678 101.691 100.137 101.691C97.6571 101.691 96.1464 103.886 96.1464 107.363V114.375H93.8092V104.199C93.8092 102.66 93.7807 101.093 93.6667 99.867H95.9469C96.0324 100.637 96.0609 101.748 96.0609 102.489ZM107.903 102.86L107.761 100.779C109.129 99.9525 110.896 99.5534 112.521 99.5534C116.568 99.5534 118.107 101.919 118.107 105.254C118.107 107.107 118.05 109.358 118.05 110.043C118.05 111.639 118.107 113.349 118.221 114.375H116.112C116.083 114.147 116.055 113.605 116.055 113.178C116.055 112.807 116.083 112.237 116.112 111.838H116.055C115.171 113.52 113.49 114.575 111.209 114.575C108.188 114.575 106.221 112.893 106.221 110.271C106.221 107.221 108.958 105.568 113.889 105.568C114.487 105.568 115.285 105.596 115.912 105.653V105.397C115.912 102.945 114.772 101.463 112.15 101.463C110.696 101.463 109.157 101.976 107.903 102.86ZM115.941 107.306C115.57 107.278 115.029 107.249 114.345 107.249C110.611 107.249 108.673 108.161 108.673 110.271C108.673 111.81 109.87 112.779 111.665 112.779C114.459 112.779 115.941 111.069 115.941 107.306Z" fill="white"></path>
  <path d="M30.4421 100.181L30.6946 100.201L30.7102 100.012L30.5326 99.9439L30.4421 100.181ZM30.2711 102.261L30.1696 102.493L30.4945 102.635L30.5236 102.282L30.2711 102.261ZM30.4706 111.81L30.7231 111.789L30.6928 111.415L30.3574 111.583L30.4706 111.81ZM30.6417 113.919L30.7415 114.152L30.9089 114.08L30.8942 113.898L30.6417 113.919ZM30.1897 100.16L30.0186 102.24L30.5236 102.282L30.6946 100.201L30.1897 100.16ZM30.3727 102.029C29.4241 101.614 28.4482 101.438 27.3923 101.438V101.944C28.3887 101.944 29.294 102.11 30.1696 102.493L30.3727 102.029ZM27.3923 101.438C25.8175 101.438 24.4872 102.011 23.5518 103.011C22.6179 104.009 22.094 105.414 22.094 107.05H22.6006C22.6006 105.522 23.0886 104.247 23.9218 103.357C24.7536 102.468 25.9459 101.944 27.3923 101.944V101.438ZM22.094 107.05C22.094 108.71 22.5939 110.15 23.5201 111.178C24.4489 112.208 25.788 112.804 27.4208 112.804V112.297C25.9183 112.297 24.7207 111.753 23.8965 110.839C23.0697 109.921 22.6006 108.61 22.6006 107.05H22.094ZM27.4208 112.804C28.5443 112.804 29.4666 112.595 30.5839 112.036L30.3574 111.583C29.3085 112.108 28.4636 112.297 27.4208 112.297V112.804ZM30.2181 111.83L30.3892 113.939L30.8942 113.898L30.7231 111.789L30.2181 111.83ZM30.5419 113.686C29.5814 114.098 28.5334 114.293 27.2783 114.293V114.799C28.5885 114.799 29.7067 114.595 30.7415 114.152L30.5419 113.686ZM27.2783 114.293C25.0689 114.293 23.2847 113.571 22.0533 112.33C20.8216 111.088 20.1209 109.303 20.1209 107.135H19.6142C19.6142 109.414 20.3529 111.335 21.6936 112.686C23.0346 114.039 24.9558 114.799 27.2783 114.799V114.293ZM20.1209 107.135C20.1209 105.027 20.8343 103.226 22.0728 101.953C23.3105 100.682 25.0884 99.9208 27.2498 99.9208V99.4141C24.9648 99.4141 23.0516 100.221 21.7097 101.6C20.3686 102.978 19.6142 104.911 19.6142 107.135H20.1209ZM27.2498 99.9208C28.3703 99.9208 29.4204 100.061 30.3517 100.417L30.5326 99.9439C29.5257 99.5589 28.4095 99.4141 27.2498 99.4141V99.9208ZM37.6841 99.867L37.9241 99.7857L37.8658 99.6136H37.6841V99.867ZM40.791 109.045L40.551 109.126L40.5522 109.13L40.791 109.045ZM41.8171 112.522L41.5722 112.587L41.6221 112.776H41.8171V112.522ZM41.8741 112.522V112.776H42.0636L42.1171 112.594L41.8741 112.522ZM42.9572 109.045L42.7172 108.964L42.7169 108.965L42.9572 109.045ZM46.064 99.867V99.6136H45.8823L45.8241 99.7857L46.064 99.867ZM48.4013 99.867L48.6398 99.9524L48.7611 99.6136H48.4013V99.867ZM43.0427 114.831L43.281 114.917L43.2812 114.916L43.0427 114.831ZM35.8884 120.475L35.6362 120.451L35.6174 120.655L35.8122 120.716L35.8884 120.475ZM36.0595 118.622L36.1291 118.378L35.8353 118.294L35.8072 118.599L36.0595 118.622ZM40.6199 114.917L40.8607 114.995L40.8878 114.912L40.8582 114.83L40.6199 114.917ZM35.1759 99.867V99.6136H34.8148L34.9376 99.9531L35.1759 99.867ZM37.4442 99.9482L40.551 109.126L41.0309 108.964L37.9241 99.7857L37.4442 99.9482ZM40.5522 109.13C40.8619 110.002 41.3156 111.618 41.5722 112.587L42.062 112.457C41.8055 111.488 41.3471 109.855 41.0297 108.96L40.5522 109.13ZM41.8171 112.776H41.8741V112.269H41.8171V112.776ZM42.1171 112.594C42.4015 111.627 42.9137 109.977 43.1975 109.125L42.7169 108.965C42.4306 109.823 41.9167 111.48 41.631 112.451L42.1171 112.594ZM43.1971 109.126L46.304 99.9482L45.8241 99.7857L42.7172 108.964L43.1971 109.126ZM46.064 100.12H48.4013V99.6136H46.064V100.12ZM48.1628 99.7816L42.8042 114.746L43.2812 114.916L48.6398 99.9524L48.1628 99.7816ZM42.8044 114.745C42.0487 116.841 41.3924 118.266 40.5875 119.17C39.8015 120.052 38.8626 120.449 37.4846 120.449V120.956C38.9854 120.956 40.0702 120.512 40.9659 119.507C41.8427 118.522 42.526 117.011 43.281 114.917L42.8044 114.745ZM37.4846 120.449C37.0735 120.449 36.474 120.394 35.9647 120.233L35.8122 120.716C36.386 120.897 37.0406 120.956 37.4846 120.956V120.449ZM36.1407 120.498L36.3117 118.645L35.8072 118.599L35.6362 120.451L36.1407 120.498ZM35.9899 118.866C36.4042 118.984 36.8845 119.075 37.3706 119.075V118.568C36.9446 118.568 36.5128 118.488 36.1291 118.378L35.9899 118.866ZM37.3706 119.075C37.7851 119.075 38.158 119.018 38.4986 118.873C38.8412 118.727 39.1365 118.498 39.4043 118.174C39.9301 117.538 40.3625 116.518 40.8607 114.995L40.3792 114.838C39.8798 116.365 39.4713 117.298 39.0138 117.851C38.7899 118.122 38.5579 118.297 38.3001 118.407C38.0404 118.518 37.7399 118.568 37.3706 118.568V119.075ZM40.8582 114.83L35.4141 99.7808L34.9376 99.9531L40.3817 115.003L40.8582 114.83ZM35.1759 100.12H37.6841V99.6136H35.1759V100.12ZM56.8475 102.375H56.5942V102.629H56.8475V102.375ZM56.9045 102.375V102.629H57.0471L57.1211 102.507L56.9045 102.375ZM67.0801 114.375V114.628H67.3334V114.375H67.0801ZM64.7428 114.375H64.4895V114.628H64.7428V114.375ZM56.9615 114.375V114.628H57.2148V114.375H56.9615ZM54.6243 114.375H54.3709V114.628H54.6243V114.375ZM54.4817 99.867V99.6136H54.2038L54.2295 99.8904L54.4817 99.867ZM56.7335 99.867L56.9859 99.8459L56.9666 99.6136H56.7335V99.867ZM56.8475 102.629H56.9045V102.122H56.8475V102.629ZM57.1211 102.507C58.134 100.837 59.7372 99.8068 61.8355 99.8068V99.3001C59.5444 99.3001 57.7842 100.436 56.6879 102.244L57.1211 102.507ZM61.8355 99.8068C63.7814 99.8068 65.0062 100.458 65.7576 101.527C66.5216 102.614 66.8267 104.175 66.8267 106.052H67.3334C67.3334 104.138 67.0258 102.45 66.1722 101.236C65.306 100.003 63.9085 99.3001 61.8355 99.3001V99.8068ZM66.8267 106.052V114.375H67.3334V106.052H66.8267ZM67.0801 114.122H64.7428V114.628H67.0801V114.122ZM64.9962 114.375V106.964H64.4895V114.375H64.9962ZM64.9962 106.964C64.9962 105.311 64.8635 103.886 64.3332 102.871C64.0641 102.356 63.6909 101.942 63.1822 101.66C62.6757 101.379 62.0517 101.238 61.294 101.238V101.745C61.9899 101.745 62.5238 101.875 62.9366 102.103C63.347 102.331 63.6544 102.666 63.8841 103.105C64.3514 104 64.4895 105.311 64.4895 106.964H64.9962ZM61.294 101.238C59.9761 101.238 58.8158 101.705 57.9908 102.718C57.1716 103.723 56.7082 105.234 56.7082 107.278H57.2148C57.2148 105.303 57.6636 103.921 58.3835 103.038C59.0976 102.162 60.1036 101.745 61.294 101.745V101.238ZM56.7082 107.278V114.375H57.2148V107.278H56.7082ZM56.9615 114.122H54.6243V114.628H56.9615V114.122ZM54.8776 114.375V104.199H54.3709V114.375H54.8776ZM54.8776 104.199C54.8776 102.659 54.8492 101.082 54.734 99.8435L54.2295 99.8904C54.3424 101.104 54.3709 102.661 54.3709 104.199H54.8776ZM54.4817 100.12H56.7335V99.6136H54.4817V100.12ZM56.481 99.888C56.5376 100.567 56.5942 101.615 56.5942 102.375H57.1008C57.1008 101.597 57.0433 100.535 56.9859 99.8459L56.481 99.888ZM84.6506 114.375L84.4659 114.548L84.5409 114.628H84.6506V114.375ZM80.2896 109.729L80.4744 109.556L80.4743 109.556L80.2896 109.729ZM77.7244 106.736L77.924 106.58L77.8479 106.483H77.7244V106.736ZM77.6674 106.736V106.483H77.414V106.736H77.6674ZM77.6674 114.375V114.628H77.9207V114.375H77.6674ZM75.3301 114.375H75.0768V114.628H75.3301V114.375ZM75.3301 92.8267V92.5734H75.0768V92.8267H75.3301ZM77.6674 92.8267H77.9207V92.5734H77.6674V92.8267ZM77.6674 105.995H77.414V106.248H77.6674V105.995ZM77.7244 105.995V106.248H77.8385L77.9141 106.163L77.7244 105.995ZM80.4037 103.259L80.5771 103.443L80.5783 103.442L80.4037 103.259ZM83.9665 99.867V99.6136H83.8652L83.7919 99.6835L83.9665 99.867ZM87.0734 99.867L87.242 100.056L87.7379 99.6136H87.0734V99.867ZM79.9476 106.223L79.779 106.034L79.5827 106.209L79.765 106.399L79.9476 106.223ZM87.7859 114.375V114.628H88.381L87.9685 114.199L87.7859 114.375ZM84.8353 114.202L80.4744 109.556L80.1049 109.902L84.4659 114.548L84.8353 114.202ZM80.4743 109.556C79.5962 108.621 78.6321 107.487 77.924 106.58L77.5247 106.892C78.2418 107.81 79.2159 108.956 80.105 109.902L80.4743 109.556ZM77.7244 106.483H77.6674V106.99H77.7244V106.483ZM77.414 106.736V114.375H77.9207V106.736H77.414ZM77.6674 114.122H75.3301V114.628H77.6674V114.122ZM75.5835 114.375V92.8267H75.0768V114.375H75.5835ZM75.3301 93.0801H77.6674V92.5734H75.3301V93.0801ZM77.414 92.8267V105.995H77.9207V92.8267H77.414ZM77.6674 106.248H77.7244V105.742H77.6674V106.248ZM77.9141 106.163C78.5637 105.429 79.6412 104.323 80.5771 103.443L80.2302 103.074C79.2849 103.962 78.1962 105.079 77.5346 105.827L77.9141 106.163ZM80.5783 103.442L84.1412 100.05L83.7919 99.6835L80.229 103.075L80.5783 103.442ZM83.9665 100.12H87.0734V99.6136H83.9665V100.12ZM86.9047 99.6779L79.779 106.034L80.1162 106.412L87.242 100.056L86.9047 99.6779ZM79.765 106.399L87.6033 114.551L87.9685 114.199L80.1302 106.048L79.765 106.399ZM87.7859 114.122H84.6506V114.628H87.7859V114.122ZM96.0609 102.489H95.8076V102.743H96.0609V102.489ZM96.1179 102.489V102.743H96.2868L96.3518 102.587L96.1179 102.489ZM101.477 99.7245H101.73V99.5374L101.551 99.4823L101.477 99.7245ZM101.477 101.862L101.402 102.104L101.73 102.205V101.862H101.477ZM96.1464 114.375V114.628H96.3998V114.375H96.1464ZM93.8092 114.375H93.5559V114.628H93.8092V114.375ZM93.6667 99.867V99.6136H93.3887L93.4144 99.8904L93.6667 99.867ZM95.9469 99.867L96.1987 99.839L96.1737 99.6136H95.9469V99.867ZM96.0609 102.743H96.1179V102.236H96.0609V102.743ZM96.3518 102.587C97.0343 100.949 98.4371 99.8068 100.165 99.8068V99.3001C98.1882 99.3001 96.6267 100.61 95.8841 102.392L96.3518 102.587ZM100.165 99.8068C100.66 99.8068 101.061 99.8618 101.402 99.9666L101.551 99.4823C101.151 99.3591 100.697 99.3001 100.165 99.3001V99.8068ZM101.223 99.7245V101.862H101.73V99.7245H101.223ZM101.551 101.62C101.15 101.497 100.696 101.438 100.137 101.438V101.944C100.661 101.944 101.062 102 101.402 102.104L101.551 101.62ZM100.137 101.438C98.8115 101.438 97.7375 102.029 97.0041 103.078C96.2772 104.118 95.8931 105.592 95.8931 107.363H96.3998C96.3998 105.657 96.771 104.296 97.4193 103.368C98.0612 102.45 98.9825 101.944 100.137 101.944V101.438ZM95.8931 107.363V114.375H96.3998V107.363H95.8931ZM96.1464 114.122H93.8092V114.628H96.1464V114.122ZM94.0625 114.375V104.199H93.5559V114.375H94.0625ZM94.0625 104.199C94.0625 102.659 94.0341 101.082 93.9189 99.8435L93.4144 99.8904C93.5273 101.104 93.5559 102.661 93.5559 104.199H94.0625ZM93.6667 100.12H95.9469V99.6136H93.6667V100.12ZM95.6951 99.895C95.7791 100.65 95.8076 101.751 95.8076 102.489H96.3143C96.3143 101.746 96.2858 100.623 96.1987 99.839L95.6951 99.895ZM107.903 102.86L107.65 102.877L107.681 103.326L108.049 103.067L107.903 102.86ZM107.761 100.779L107.63 100.562L107.497 100.642L107.508 100.796L107.761 100.779ZM118.221 114.375V114.628H118.504L118.473 114.347L118.221 114.375ZM116.112 114.375L115.861 114.406L115.888 114.628H116.112V114.375ZM116.112 111.838L116.365 111.856L116.384 111.585H116.112V111.838ZM116.055 111.838V111.585H115.902L115.831 111.72L116.055 111.838ZM115.912 105.653L115.889 105.905L116.166 105.93V105.653H115.912ZM115.941 107.306H116.194V107.072L115.96 107.054L115.941 107.306ZM108.156 102.842L108.013 100.762L107.508 100.796L107.65 102.877L108.156 102.842ZM107.892 100.996C109.212 100.198 110.932 99.8068 112.521 99.8068V99.3001C110.86 99.3001 109.045 99.707 107.63 100.562L107.892 100.996ZM112.521 99.8068C114.494 99.8068 115.812 100.382 116.642 101.321C117.476 102.266 117.854 103.621 117.854 105.254H118.36C118.36 103.552 117.968 102.057 117.021 100.985C116.07 99.9079 114.594 99.3001 112.521 99.3001V99.8068ZM117.854 105.254C117.854 106.178 117.84 107.203 117.825 108.082C117.811 108.96 117.797 109.698 117.797 110.043H118.303C118.303 109.703 118.318 108.973 118.332 108.091C118.346 107.21 118.36 106.183 118.36 105.254H117.854ZM117.797 110.043C117.797 111.641 117.854 113.363 117.969 114.403L118.473 114.347C118.36 113.335 118.303 111.636 118.303 110.043H117.797ZM118.221 114.122H116.112V114.628H118.221V114.122ZM116.363 114.344C116.337 114.13 116.308 113.6 116.308 113.178H115.802C115.802 113.611 115.83 114.164 115.861 114.406L116.363 114.344ZM116.308 113.178C116.308 112.816 116.336 112.253 116.365 111.856L115.859 111.82C115.831 112.222 115.802 112.799 115.802 113.178H116.308ZM116.112 111.585H116.055V112.092H116.112V111.585ZM115.831 111.72C114.994 113.313 113.402 114.321 111.209 114.321V114.828C113.577 114.828 115.349 113.727 116.279 111.956L115.831 111.72ZM111.209 114.321C109.744 114.321 108.561 113.914 107.748 113.214C106.939 112.518 106.475 111.514 106.475 110.271H105.968C105.968 111.65 106.488 112.798 107.417 113.598C108.343 114.395 109.653 114.828 111.209 114.828V114.321ZM106.475 110.271C106.475 108.837 107.11 107.742 108.338 106.992C109.582 106.232 111.445 105.821 113.889 105.821V105.314C111.402 105.314 109.431 105.73 108.074 106.559C106.701 107.398 105.968 108.654 105.968 110.271H106.475ZM113.889 105.821C114.481 105.821 115.272 105.849 115.889 105.905L115.935 105.401C115.299 105.343 114.493 105.314 113.889 105.314V105.821ZM116.166 105.653V105.397H115.659V105.653H116.166ZM116.166 105.397C116.166 104.136 115.873 103.081 115.202 102.341C114.527 101.595 113.509 101.21 112.15 101.21V101.716C113.414 101.716 114.276 102.072 114.827 102.681C115.382 103.294 115.659 104.206 115.659 105.397H116.166ZM112.15 101.21C110.64 101.21 109.05 101.741 107.757 102.653L108.049 103.067C109.264 102.211 110.753 101.716 112.15 101.716V101.21ZM115.96 107.054C115.584 107.025 115.036 106.996 114.345 106.996V107.503C115.022 107.503 115.557 107.531 115.921 107.559L115.96 107.054ZM114.345 106.996C112.466 106.996 110.998 107.224 109.992 107.744C109.485 108.006 109.088 108.346 108.819 108.774C108.55 109.202 108.419 109.703 108.419 110.271H108.926C108.926 109.783 109.037 109.379 109.248 109.043C109.46 108.707 109.781 108.423 110.225 108.194C111.121 107.731 112.489 107.503 114.345 107.503V106.996ZM108.419 110.271C108.419 111.111 108.749 111.811 109.334 112.297C109.914 112.778 110.724 113.032 111.665 113.032V112.526C110.811 112.526 110.125 112.295 109.657 111.907C109.195 111.523 108.926 110.969 108.926 110.271H108.419ZM111.665 113.032C113.116 113.032 114.268 112.585 115.048 111.612C115.82 110.65 116.194 109.214 116.194 107.306H115.688C115.688 109.161 115.321 110.462 114.653 111.295C113.994 112.117 113.008 112.526 111.665 112.526V113.032Z" fill="white"></path>
</svg><style>@media (prefers-color-scheme: light) { :root { filter: none; } }
@media (prefers-color-scheme: dark) { :root { filter: none; } }
</style></svg>